<?xml version="1.0" encoding="utf-8"?>
<!-- Generator: Adobe Illustrator 19.2.1, SVG Export Plug-In . SVG Version: 6.00 Build 0)  -->
<svg version="1.1" id="layer" xmlns="http://www.w3.org/2000/svg" xmlns:xlink="http://www.w3.org/1999/xlink" x="0px" y="0px"
	 viewBox="0 0 652 652" style="enable-background:new 0 0 652 652;" xml:space="preserve">
<style type="text/css">
	.st0{fill:#12120D;}
	.st1{fill-rule:evenodd;clip-rule:evenodd;fill:#12120D;}
	.st2{fill:#FFFFFF;}
	.st3{fill:none;stroke:#FFFFFF;stroke-width:0.2408;stroke-miterlimit:2.613;}
</style>
<g>
	<path class="st0" d="M262,321.5h2.6v46.7h-68.7v-3h13.3V198h-11.5v-3h40.3v3h-11.1v167.2c0,0,6.2,0.1,8.6,0
		C240.1,365.2,260.7,363.8,262,321.5"/>
	<path class="st0" d="M440.2,321.7h2.6v46.7h-68.7v-3h13.3V197.9h-11.5v-3h40.3v3H405v167.5c0,0,6.2,0.1,8.6,0
		C418.4,365.3,439,363.9,440.2,321.7"/>
	<path class="st0" d="M49.8,281h1.5c1.2,0,18.2-2.4,18.1,31.5l2.6,0v-4.4v-29.3l0-2.2v-30h-2.6c0.1,33.9-16.9,31.5-18.1,31.5h-1.5
		v-0.8V198c0,0,6.2,0,8.6,0c4.7,0.1,27.4-1.6,28.7,40.7h1.7V195H20v3h12.1v99.2v1.6v66.6H20.9v3h68.6v-46.8H87
		c-1.3,42.3-24,43.7-28.7,43.7c-2.4,0.1-8.6,0-8.6,0v-66.5L49.8,281z"/>
	<path class="st0" d="M580.1,281.1h1.5c1.2,0,18.2-2.4,18.1,31.5h2.5v-4.4v-30l0-1.4v-30h-2.6c0.1,33.9-16.9,31.5-18.1,31.5H580
		v-0.8v-79.3c0,0,6.2,0,8.6,0c4.7,0.1,27.4-1.6,28.7,40.7h1.7v-43.7h-68.7v3h12.1v99.2v1.6v66.6h-11.2v3h68.6v-46.8h-2.6
		c-1.3,42.3-24,43.7-28.7,43.7c-2.4,0.1-8.6,0-8.6,0v-66.5L580.1,281.1z"/>
	<path class="st1" d="M32.2,445.7h12.3c10.4,0,18.2-1.3,26.1-8.3c7.3-6.5,10.8-15,10.8-24.7c0-9.8-3.4-18.7-11-25.2
		c-7.8-6.7-15.9-8-25.8-8H32.2V445.7z M39.6,438.9v-52.4h5.4c7.8,0,14.5,1.1,20.5,6.4c5.7,5,8.6,12.3,8.6,19.8
		c0,7.4-2.8,14.3-8.2,19.4c-6,5.7-12.8,6.8-20.9,6.8H39.6z"/>
	<polygon class="st1" points="95.2,445.7 129.5,445.7 129.5,438.9 102.6,438.9 102.6,412.9 128.7,412.9 128.7,406 102.6,406 
		102.6,386.4 129.5,386.4 129.5,379.6 95.2,379.6 	"/>
	<path class="st1" d="M196.8,384.9c-5.9-4.4-12.4-6.5-19.7-6.5c-19,0-34.5,15.5-34.5,34.5c0,18.8,15.8,33.9,34.5,33.9
		c7,0,14-2.4,19.7-6.5v-9.1c-5.3,5.3-12.5,8.8-20,8.8c-14.8,0-26.8-12.8-26.8-27.4c0-14.6,11.9-27.4,26.7-27.4
		c7.6,0,14.9,3.3,20.2,8.8V384.9z"/>
	<path class="st1" d="M246.4,378.4c-18.9,0-34.5,15.3-34.5,34.3c0,19,15.6,34.1,34.5,34.1c18.9,0,34.5-15.1,34.5-34.1
		C280.9,393.8,265.3,378.4,246.4,378.4 M246.4,385.3c15.2,0,27.1,12.4,27.1,27.4c0,14.9-12.1,27.4-27.1,27.4
		c-15,0-27.1-12.4-27.1-27.4C219.3,397.6,231.3,385.3,246.4,385.3"/>
	<path class="st1" d="M304.3,386.4h2.2c8.9,0,16.8,1.1,16.8,11.9c0,10.2-8.4,11.8-16.7,11.8h-2.3V386.4z M304.3,416.7h1.8l20,29h9
		l-21-29.6c10.2-0.9,16.6-8.1,16.6-18.2c0-14.9-11.7-18.2-24.2-18.2h-9.6v66.1h7.4V416.7z"/>
	<path class="st1" d="M386.9,426.9l7.8,18.8h8.2l-29.7-69.3l-30.5,69.3h8.1l8-18.8H386.9z M384,420.1h-22.4l11.3-26.5L384,420.1z"/>
	<polygon class="st1" points="425.8,386.4 441.9,386.4 441.9,379.6 402.5,379.6 402.5,386.4 418.4,386.4 418.4,445.7 425.8,445.7 	
		"/>
	<rect x="455.7" y="379.6" class="st1" width="7.4" height="66.1"/>
	<path class="st1" d="M511.9,378.4c-18.9,0-34.5,15.3-34.5,34.3c0,19,15.6,34.1,34.5,34.1c18.9,0,34.5-15.1,34.5-34.1
		C546.4,393.8,530.8,378.4,511.9,378.4 M511.9,385.3c15.2,0,27.1,12.4,27.1,27.4c0,14.9-12.1,27.4-27.1,27.4
		c-15,0-27.1-12.4-27.1-27.4C484.8,397.6,496.7,385.3,511.9,385.3"/>
	<polygon class="st1" points="561.1,445.7 568.5,445.7 568.5,394.7 620,448.7 620,379.6 612.7,379.6 612.7,430.8 561.1,376.8 	"/>
	<path class="st2" d="M610.7,362.9c0-1.7,1.4-3,3.1-3c1.7,0,3.1,1.3,3.1,3c0,1.8-1.4,3.1-3.1,3.1C612.1,366,610.7,364.7,610.7,362.9
		 M613.7,365.4c1.4,0,2.5-1.1,2.5-2.5c0-1.4-1.1-2.5-2.5-2.5c-1.4,0-2.5,1.1-2.5,2.5C611.3,364.4,612.3,365.4,613.7,365.4
		 M613.1,364.7h-0.5v-3.5h1.3c0.8,0,1.2,0.3,1.2,1c0,0.6-0.4,0.9-0.9,1l1,1.5h-0.6l-0.9-1.5h-0.6V364.7z M613.7,362.7
		c0.4,0,0.9,0,0.9-0.6c0-0.4-0.4-0.5-0.8-0.5h-0.7v1.1H613.7z"/>
	<path class="st3" d="M613.7,362.7c0.4,0,0.9,0,0.9-0.6c0-0.4-0.4-0.5-0.8-0.5h-0.7v1.1H613.7 M613.1,364.7h-0.5v-3.5h1.3
		c0.8,0,1.2,0.3,1.2,1c0,0.6-0.4,0.9-0.9,1l1,1.5h-0.6l-0.9-1.5h-0.6V364.7 M613.7,365.4c1.4,0,2.4-1.1,2.4-2.5
		c0-1.4-1.1-2.5-2.4-2.5c-1.4,0-2.5,1.1-2.5,2.5C611.3,364.4,612.4,365.4,613.7,365.4 M610.6,362.9c0-1.7,1.4-3,3.1-3
		c1.6,0,3.1,1.3,3.1,3c0,1.8-1.4,3-3.1,3C612.1,365.9,610.6,364.7,610.6,362.9"/>
</g>
</svg>
