<?xml version="1.0" encoding="utf-8"?>
<!-- Generator: Adobe Illustrator 24.1.0, SVG Export Plug-In . SVG Version: 6.00 Build 0)  -->
<svg version="1.1" id="Layer_1" xmlns="http://www.w3.org/2000/svg" xmlns:xlink="http://www.w3.org/1999/xlink" x="0px" y="0px"
	 viewBox="0 0 93.2 67.9" style="enable-background:new 0 0 93.2 67.9;" xml:space="preserve">
<style type="text/css">
	.st0{fill:#231F20;}
</style>
<path class="st0" d="M84.9,15.5c-3.1-4.5-6.4-6.9-11.4-8.2C70.4,6.5,66,6,62,6H45.6v1l0.2,0c4.3,1.2,5.4,2.8,5.4,7.8v35.3
	c0,7.9-0.7,12.2-2.4,13.9c-0.6-0.8-1.1-2.2-1.8-3.9c-0.3-0.7-0.6-1.5-0.9-2.4c-0.8-2-2.2-5.7-2.6-6.8L26.9,2.9l-16.5,47
	c-0.5,1.3-1.4,4.1-1.5,4.3c-0.8,2.4-1.6,3.9-2.6,5.6c-1.4,2.3-2.5,3.5-4.4,4.5l-0.1,0.1v0.9h17.8l0-1l-0.2,0
	c-2.1-0.2-4.4-1.6-4.8-4.3c-0.1-0.9-0.3-3.6-0.3-4.6l0-0.2c0-2.2,0.1-6.3,1.1-10.8h16.5l2.4,8.3c0.1,0.3,0.2,0.8,0.4,1.3
	c0.9,3.1,1.2,4.6,1.2,6c0,2.5-1.3,3.8-4.2,4.2l-0.2,0v1h36.3c5.8,0,9.8-1.4,13.4-4.5c5.8-5.1,9.3-14.5,9.3-25.1
	C90.4,27.8,88.4,20.6,84.9,15.5z M80,36.1c-0.2,11.1-1.6,15.6-3.9,19.4c-3.8,6.3-5.6,8.5-15.6,8.8l0-57.2c0,0,0,0,0,0
	c9.9,0,14.3,3.6,18,14.9C79.6,25.4,80,29.6,80,36.1z M19.6,27.5l1.6-5.4l0.9-2.7c0-0.1,0.3-0.8,0.5-1.5c0.2-0.6,0.4-1.2,0.6-1.7
	l8.1,27.1H15.3C16.5,38.7,18.5,31.4,19.6,27.5z"/>
</svg>
