<svg id="Layer_1" xmlns="http://www.w3.org/2000/svg" width="272.879" height="52.007" viewBox="0 0 272.879 52.007"><style>.st0{fill:#000}</style><path class="st0" d="M0 26.676h6.879V0H0v26.676zm49.877-11.998L39.079 0H32v26.676h6.879V11.238l11.278 15.437h6.639V0h-6.919v14.678zM80.48 5.999h7.479v20.677h6.879V5.999h7.439V0H80.48v5.999zm65.077 14.678h-12.678v-4.519h12.398v-5.999h-12.398v-4.16h12.678V0H126v26.676h19.557v-5.999zm31.322-2.96h3.519l4.479 8.958h7.879l-5.439-9.798c2.52-.88 5.319-3.359 5.319-7.999 0-4.959-3.359-8.879-9.278-8.879H170v26.676h6.879v-8.958zm0-11.718h5.439c1.84 0 3.32 1 3.32 2.84 0 1.88-1.48 2.88-3.32 2.88h-5.439v-5.72zm56.998 8.679L223.079 0H216v26.676h6.879V11.238l11.278 15.437h6.639V0h-6.919v14.678zM266 0v26.676h6.879V0H266zM84.943 37.338h-4.216v11.338h4.232c3.536 0 5.915-2.329 5.915-5.677.001-3.315-2.379-5.661-5.931-5.661zm0 9.587h-2.227v-7.836h2.244c2.516 0 3.876 1.734 3.876 3.91-.001 2.158-1.428 3.926-3.893 3.926zm12.085-6.664c-2.431 0-4.165 1.921-4.165 4.301 0 2.601 1.819 4.318 4.301 4.318 1.292 0 2.499-.425 3.332-1.207L99.68 46.5c-.595.595-1.53.918-2.346.918-1.547 0-2.465-1.037-2.601-2.261h6.323v-.442c.001-2.584-1.563-4.454-4.028-4.454zm-2.312 3.621c.068-.986.782-2.159 2.295-2.159 1.615 0 2.278 1.19 2.329 2.159h-4.624zm9.595-1.19c0-.578.578-1.02 1.513-1.02 1.037 0 1.938.442 2.431.986l.748-1.258c-.731-.646-1.785-1.139-3.179-1.139-2.074 0-3.23 1.139-3.23 2.482 0 3.162 4.964 2.006 4.964 3.621 0 .646-.561 1.088-1.632 1.088-1.054 0-2.193-.544-2.771-1.139l-.816 1.275c.85.833 2.108 1.292 3.519 1.292 2.21 0 3.417-1.105 3.417-2.567 0-3.264-4.964-2.176-4.964-3.621zm8.306-5.439c-.612 0-1.105.493-1.105 1.105s.493 1.105 1.105 1.105 1.105-.493 1.105-1.105-.493-1.105-1.105-1.105zm-.901 11.423h1.785v-8.21h-1.785v8.21zm10.46-7.072c-.663-.884-1.598-1.343-2.635-1.343-2.125 0-3.638 1.547-3.638 4.216 0 2.703 1.547 4.216 3.638 4.216 1.071 0 2.006-.544 2.635-1.377v.935c0 1.751-1.258 2.295-2.431 2.295-1.088 0-1.938-.289-2.618-1.054l-.833 1.292c1.02.918 2.057 1.224 3.451 1.224 2.006 0 4.216-.799 4.216-3.757v-7.785h-1.785v1.138zm0 4.403c-.408.595-1.275 1.088-2.108 1.088-1.428 0-2.329-1.037-2.329-2.618s.901-2.635 2.329-2.635c.833 0 1.7.493 2.108 1.088v3.077zm9.592-5.746c-1.292 0-2.363.663-2.907 1.309v-1.105h-1.785v8.21h1.785V42.93c.425-.544 1.207-1.088 2.108-1.088 1.003 0 1.666.408 1.666 1.7v5.133h1.785v-5.779c-.001-1.683-.884-2.635-2.652-2.635zm12.402.068c0-.833.748-1.411 1.904-1.411 1.19 0 2.397.408 3.298 1.309l1.122-1.479c-1.037-1.02-2.482-1.598-4.233-1.598-2.499 0-4.131 1.445-4.131 3.332 0 4.165 6.595 2.686 6.595 5.065 0 .765-.629 1.564-2.261 1.564a4.871 4.871 0 0 1-3.587-1.581l-1.122 1.547c1.02 1.054 2.533 1.802 4.624 1.802 3.043 0 4.385-1.632 4.385-3.519.001-4.215-6.594-2.906-6.594-5.031zm11.887 6.97c-.51 0-.782-.425-.782-.986v-4.301h1.666v-1.547h-1.666v-2.244h-1.785v2.244h-1.36v1.547h1.36v4.743c0 1.377.714 2.125 2.108 2.125.816 0 1.343-.238 1.666-.527l-.425-1.36c-.136.153-.442.306-.782.306zm8.281-1.071c-.408.544-1.19 1.071-2.091 1.071-1.02 0-1.666-.408-1.666-1.683v-5.151h-1.785v5.813c0 1.666.884 2.601 2.652 2.601a3.927 3.927 0 0 0 2.89-1.292v1.088h1.785v-8.21h-1.785v5.763zm10.918-4.624a3.201 3.201 0 0 0-2.635-1.343c-2.108 0-3.638 1.649-3.638 4.301 0 2.72 1.547 4.318 3.638 4.318 1.071 0 2.006-.51 2.635-1.326v1.122h1.785V37.338h-1.785v4.266zm0 4.59c-.391.612-1.275 1.105-2.108 1.105-1.428 0-2.329-1.139-2.329-2.737 0-1.581.901-2.72 2.329-2.72.833 0 1.717.493 2.108 1.105v3.247zm5.801-8.941c-.612 0-1.105.493-1.105 1.105s.493 1.105 1.105 1.105 1.105-.493 1.105-1.105-.493-1.105-1.105-1.105zm-.901 11.423h1.785v-8.21h-1.785v8.21zm8.403-8.415c-2.618 0-4.216 1.938-4.216 4.301 0 2.346 1.598 4.318 4.216 4.318s4.216-1.972 4.216-4.318c-.001-2.363-1.598-4.301-4.216-4.301zm0 7.038c-1.513 0-2.363-1.275-2.363-2.737 0-1.445.85-2.72 2.363-2.72 1.53 0 2.363 1.275 2.363 2.72 0 1.462-.833 2.737-2.363 2.737z"/></svg>