<svg width="75" height="29" viewBox="0 0 75 29" fill="none" xmlns="http://www.w3.org/2000/svg" class="SHeader__logo-item"><g clip-path="url(#MetroLogo_svg__clip0)" fill="#121212"><path d="M17.405 20.008V9.281c0-1.485-1.02-2.429-2.883-2.429-1.828 0-2.919 1.08-2.919 2.463v10.693H8.685V9.281c0-1.485-.985-2.429-2.884-2.429-1.829 0-2.918 1.08-2.918 2.463v10.693H0V4.728h2.567l.106 1.416C3.657 5.03 4.677 4.39 6.786 4.39c1.724 0 3.13.91 3.833 2.024.914-1.147 2.392-2.024 4.818-2.024 2.848 0 4.852 1.956 4.852 4.655V20.01h-2.884zM35.652 10.9l-2.145 2.125h-7.49c.07 2.193 1.548 4.859 4.712 4.859 1.724 0 3.06-.507 4.255-1.485l-.633 3.002c-.914.54-2.18.945-4.044.945-3.973 0-7.279-3.205-7.279-7.961 0-5.061 3.411-7.995 6.752-7.995 3.762 0 5.907 2.9 5.907 5.768 0 .203 0 .54-.035.742zm-5.766-4.115c-1.688 0-3.376 1.754-3.728 3.947h6.575c.036-.135.036-.371.036-.506 0-1.62-1.126-3.441-2.883-3.441zM46.936 6.987h-4.36v8.906c0 1.181.88 1.889 2.04 1.889.597 0 1.089-.068 1.511-.27l-.491 2.496c-.317.136-.737.202-1.371.202-2.532 0-4.535-1.55-4.535-4.35V6.986h-2.672v-2.26h2.672V1.825l2.847-1.45v4.352h4.784l-.425 2.26zM57.265 6.953c-2.285 0-4.817 1.484-4.817 5.263v7.792H49.53V4.728h2.744l.106 2.293c.738-1.755 2.567-2.497 4.712-2.497l.457 2.429h-.283zM65.938 20.561c-4.848 0-8.693-3.687-8.693-8.34 0-4.652 3.845-8.34 8.693-8.34 4.85 0 8.694 3.688 8.694 8.34 0 4.652-3.845 8.34-8.694 8.34zm2.4-15.107c.44.612.858 1.34 1.176 2.092.516-.212.98-.47 1.372-.705a6.828 6.828 0 00-2.548-1.387zM71.57 7.5c-.488.305-1.078.61-1.738.892.464 1.198.734 2.373.807 3.36h2.717c-.096-1.645-.73-3.125-1.786-4.252zm-4.578-2.35a2.48 2.48 0 00-.563-.07v3.289c.709-.07 1.493-.235 2.204-.47a12.977 12.977 0 00-1.641-2.75zM68.95 8.72c-.858.329-1.74.54-2.522.611v2.42h3.232c-.074-1.01-.319-2.02-.71-3.03zm-3.503-3.642c-.171 0-.367.024-.563.07-.637.823-1.2 1.74-1.641 2.75.71.235 1.493.4 2.204.47v-3.29zm5.192 7.613c-.047.963-.318 2.161-.808 3.36.662.281 1.25.587 1.74.893 1.053-1.128 1.69-2.608 1.787-4.253H70.64zm-9.65-5.85c.393.234.858.493 1.372.705.319-.752.735-1.48 1.176-2.092a6.854 6.854 0 00-2.547 1.387zm5.439 5.85v2.42c.783.07 1.664.281 2.522.61.392-1.033.638-2.067.71-3.03h-3.232zm-.98-3.36c-.784-.07-1.666-.282-2.524-.61-.392 1.009-.637 2.02-.71 3.03h3.233v-2.42zm4.041 7.542a9.972 9.972 0 01-1.15 2.114 6.842 6.842 0 002.547-1.386 8.459 8.459 0 00-1.397-.728zM60.306 7.5c-1.054 1.127-1.69 2.607-1.788 4.252h2.717c.074-.987.343-2.162.809-3.36a12.917 12.917 0 01-1.738-.892zm6.123 8.575v3.29c.171 0 .366-.024.563-.072.637-.823 1.2-1.787 1.615-2.772a10.597 10.597 0 00-2.178-.446zm-.98-3.383h-3.233c.074.963.318 1.997.71 3.03.857-.329 1.739-.54 2.522-.61v-2.42zm0 3.383c-.71.07-1.445.211-2.181.446.417.987.98 1.95 1.616 2.772.196.046.392.072.563.072v-3.29h.001zm-4.212-3.383H58.52c.098 1.644.734 3.125 1.786 4.253.49-.306 1.079-.612 1.74-.893-.49-1.199-.76-2.397-.809-3.36zm1.15 4.182a8.138 8.138 0 00-1.395.728 6.842 6.842 0 002.547 1.387 9.946 9.946 0 01-1.151-2.115zM72.115 3.522c0-.654.552-1.185 1.242-1.185.685 0 1.235.53 1.235 1.185 0 .661-.549 1.192-1.235 1.192-.69 0-1.242-.53-1.242-1.192zm2.26 0c0-.537-.454-.976-1.018-.976-.568 0-1.025.439-1.025.976 0 .543.457.983 1.025.983.563.001 1.019-.439 1.019-.983zm-1.28.08v.604h-.23V2.809h.472c.267 0 .544.069.544.385 0 .161-.103.288-.296.326v.006c.2.038.224.124.247.275.019.133.035.278.085.405h-.291c-.016-.08-.04-.168-.049-.25-.015-.121-.015-.23-.082-.298-.055-.057-.131-.05-.21-.057h-.19zm.24-.218c.212-.007.264-.092.264-.2 0-.105-.05-.158-.232-.158h-.274v.358h.241zM26.5 28.435c-.028-1.391-.116-2.699-.313-3.999h-.007l-1.47 3.999h-.421l-1.458-3.999h-.014a37.74 37.74 0 00-.277 3.999h-.447c.02-1.495.148-3.018.4-4.538h.643l1.39 3.85h.02l1.39-3.85h.637c.244 1.548.36 2.978.393 4.538h-.467zM30.368 28.5c-1.47 0-2.155-.969-2.155-2.288 0-1.393.772-2.38 2.21-2.38 1.437 0 2.162.994 2.162 2.288 0 1.405-.76 2.38-2.217 2.38zm-.027-4.285c-1.186 0-1.641.885-1.641 1.905 0 1.126.441 1.998 1.75 1.998 1.219 0 1.646-.904 1.646-1.906 0-1.112-.454-1.997-1.755-1.997zM34.568 28.5c-.311 0-.671-.045-.996-.13l.08-.409c.327.09.651.15 1.032.15.596 0 .989-.319.989-.865 0-.533-.488-.748-.99-.989-.616-.291-1.064-.598-1.064-1.254 0-.697.563-1.17 1.424-1.17.258 0 .623.045.827.117l-.088.37a2.974 2.974 0 00-.786-.104c-.623 0-.894.331-.894.74 0 .533.46.742.956.982.65.313 1.112.612 1.112 1.268-.002.807-.64 1.294-1.602 1.294zM40.526 28.214c-.4.168-.82.267-1.26.267-1.29 0-2.15-.813-2.15-2.264 0-1.436.855-2.365 2.15-2.365.446 0 .792.05 1.233.247l-.163.35a2.683 2.683 0 00-1.112-.215c-.983 0-1.62.78-1.62 1.939 0 1.236.665 1.918 1.729 1.918.387 0 .752-.098 1.064-.227l.129.35zM43.392 28.5c-1.47 0-2.154-.969-2.154-2.288 0-1.393.772-2.38 2.21-2.38 1.436 0 2.162.994 2.162 2.288-.002 1.405-.761 2.38-2.218 2.38zm-.029-4.285c-1.185 0-1.64.885-1.64 1.905 0 1.126.442 1.998 1.749 1.998 1.22 0 1.647-.904 1.647-1.906 0-1.112-.453-1.997-1.756-1.997zM52.731 23.896a47.521 47.521 0 01-1.498 4.539h-.535l-.984-3.427-.149-.624h-.013l-.143.618-.969 3.433h-.521a44.44 44.44 0 01-1.498-4.538h.495c.298 1.196.671 2.42 1.084 3.569.053.156.122.37.162.513h.015l.17-.677.942-3.407h.569l.977 3.4.17.683h.014c.047-.156.11-.37.163-.526.399-1.152.786-2.354 1.071-3.557l.478.002z"></path></g><defs><clipPath id="MetroLogo_svg__clip0"><path fill="#fff" transform="translate(0 .375)" d="M0 0h74.632v28.125H0z"></path></clipPath></defs></svg>